HIERARCHY
ROOT Hips
{
  OFFSET 179.979 97.3047 303.174
  CHANNELS 6 Xposition Yposition Zposition Zrotation Xrotation Yrotation
  JOINT Spine
  {
    OFFSET 0.000859786 9.92346 -1.22733
    CHANNELS 3 Zrotation Xrotation Yrotation
    JOINT Spine1
    {
      OFFSET 0 11.732 0
      CHANNELS 3 Zrotation Xrotation Yrotation
      JOINT Spine2
      {
        OFFSET 0 13.4588 0
        CHANNELS 3 Zrotation Xrotation Yrotation
        JOINT Neck
        {
          OFFSET 2.54812e-05 15.0278 0.877907
          CHANNELS 3 Zrotation Xrotation Yrotation
          JOINT Head
          {
            OFFSET 0 10.3218 3.14243
            CHANNELS 3 Zrotation Xrotation Yrotation
            End Site
            {
              OFFSET 0 0 0
            }
          }
        }
        JOINT LeftShoulder
        {
          OFFSET 6.10582 9.10629 0.757062
          CHANNELS 3 Zrotation Xrotation Yrotation
          JOINT LeftArm
          {
            OFFSET 0 12.9223 0
            CHANNELS 3 Zrotation Xrotation Yrotation
            JOINT LeftForeArm
            {
              OFFSET 0 27.4047 0
              CHANNELS 3 Zrotation Xrotation Yrotation
              JOINT LeftHand
              {
                OFFSET -1.28204e-05 27.6145 0
                CHANNELS 3 Zrotation Xrotation Yrotation
                End Site
                {
                  OFFSET 0 0 0
                }
              }
            }
          }
        }
        JOINT RightShoulder
        {
          OFFSET -6.1057 9.10638 0.757076
          CHANNELS 3 Zrotation Xrotation Yrotation
          JOINT RightArm
          {
            OFFSET 0 12.9223 0
            CHANNELS 3 Zrotation Xrotation Yrotation
            JOINT RightForeArm
            {
              OFFSET 0 27.4047 0
              CHANNELS 3 Zrotation Xrotation Yrotation
              JOINT RightHand
              {
                OFFSET 1.28428e-05 27.6145 1.44975e-05
                CHANNELS 3 Zrotation Xrotation Yrotation
                End Site
                {
                  OFFSET 0 0 0
                }
              }
            }
          }
        }
      }
    }
  }
  JOINT LeftUpLeg
  {
    OFFSET 9.12387 -6.65719 -0.0554031
    CHANNELS 3 Zrotation Xrotation Yrotation
    JOINT LeftLeg
    {
      OFFSET 0 40.5994 0
      CHANNELS 3 Zrotation Xrotation Yrotation
      JOINT LeftFoot
      {
        OFFSET 0 42.099 0
        CHANNELS 3 Zrotation Xrotation Yrotation
        JOINT LeftToeBase
        {
          OFFSET 0 15.7216 0
          CHANNELS 3 Zrotation Xrotation Yrotation
          End Site
          {
            OFFSET 0 0 0
          }
        }
      }
    }
  }
  JOINT RightUpLeg
  {
    OFFSET -9.12503 -6.6556 -0.0553527
    CHANNELS 3 Zrotation Xrotation Yrotation
    JOINT RightLeg
    {
      OFFSET 0 40.5994 0
      CHANNELS 3 Zrotation Xrotation Yrotation
      JOINT RightFoot
      {
        OFFSET 0 42.099 0
        CHANNELS 3 Zrotation Xrotation Yrotation
        JOINT RightToeBase
        {
          OFFSET 0 15.7216 0
          CHANNELS 3 Zrotation Xrotation Yrotation
          End Site
          {
            OFFSET 0 0 0
          }
        }
      }
    }
  }
}
MOTION
Frames:	15
Frame Time:	0.0333333
-68.1446 98.6658 170.189 -1.23096 -5.19891 -1.32931 0.284382 -5.31244 -0.24472 0.599453 3.2626 -0.561218 0.665176 9.85679 -0.557732 -3.57427 6.31244 -2.61811 2.9525 -9.1183 -4.4718 -87.9969 -22.3256 89.5859 18.9846 1.57461 -22.4886 19.2416 -19.0434 -0.892833 -15.8615 3.93312 6.52746 87.0806 -8.46832 -90.6219 -10.2806 9.81176 29.9335 -23.3617 -19.7415 0.985888 17.1219 2.53376 -13.8596 -175.376 -7.78481 -12.7694 -3.04576 -15.5949 -2.03294 10.6072 80.1759 -9.64579 -0.965263 26.367 -3.60229 178.85 -3.74097 -0.298561 4.65293 -18.2151 16.5354 -38.2483 74.1751 43.0804 0.963563 26.3682 3.55536 
-68.1542 98.6662 170.173 -1.22756 -5.21294 -1.31736 0.284382 -5.31244 -0.24472 0.599483 3.2657 -0.561219 0.665446 9.85987 -0.561938 -3.57133 6.30468 -2.61809 2.94619 -9.12431 -4.4682 -87.9857 -22.3257 89.5902 19.0097 1.55919 -22.4666 19.2357 -19.0806 -0.893033 -15.8624 3.99156 6.57892 87.0869 -8.46257 -90.6205 -10.2694 9.79844 29.9184 -23.3815 -19.7437 0.985902 17.1392 2.52467 -13.8452 -175.37 -7.78464 -12.7753 -3.04285 -15.603 -2.01932 10.5512 80.1833 -9.5935 -0.965263 26.367 -3.60229 178.856 -3.74697 -0.27115 4.64487 -18.2174 16.5261 -38.2683 74.1842 43.089 0.963563 26.3682 3.55536 
-68.1738 98.6671 170.137 -1.21724 -5.24457 -1.29448 0.284382 -5.31244 -0.24472 0.593897 3.273 -0.561221 0.660933 9.86716 -0.568281 -3.55054 6.29165 -2.61815 2.91274 -9.14116 -4.45098 -87.9663 -22.3258 89.5975 19.0762 1.51263 -22.4155 19.213 -19.1244 -0.89327 -15.9167 4.05523 6.45373 87.1002 -8.45029 -90.6177 -10.2445 9.76917 29.8834 -23.4241 -19.7527 0.985958 17.1629 2.51178 -13.8215 -175.361 -7.78413 -12.7934 -3.03583 -15.6209 -1.98677 10.4198 80.1983 -9.47317 -0.965263 26.367 -3.60229 178.867 -3.75672 -0.217392 4.62702 -18.2276 16.5076 -38.3303 74.2007 43.124 0.963563 26.3682 3.55536 
-68.1929 98.6645 170.096 -1.20444 -5.27193 -1.28419 0.284382 -5.31244 -0.24472 0.58744 3.2798 -0.563565 0.654777 9.87394 -0.570677 -3.53407 6.28907 -2.61823 2.88283 -9.17237 -4.43637 -87.9625 -22.3259 89.5977 19.1367 1.46298 -22.3922 19.1713 -19.1041 -0.89316 -15.8907 3.98941 6.28664 87.1038 -8.44702 -90.6169 -10.2441 9.75113 29.862 -23.4531 -19.7665 0.986043 17.1386 2.51854 -13.8271 -175.358 -7.77789 -12.7963 -3.03282 -15.6384 -1.97145 10.3432 80.2056 -9.40885 -0.965263 26.367 -3.60229 178.875 -3.75916 -0.186537 4.61022 -18.2401 16.4957 -38.3869 74.2152 43.154 0.963563 26.3682 3.55536 
-68.2159 98.6639 170.052 -1.19438 -5.29973 -1.27359 0.284382 -5.31244 -0.24472 0.580388 3.28748 -0.568049 0.64824 9.88162 -0.575233 -3.54206 6.29355 -2.62514 2.88589 -9.21459 -4.44636 -87.9767 -22.3229 89.5974 19.1871 1.43085 -22.4732 19.1833 -19.076 -0.893009 -15.8639 3.93733 6.30475 87.1036 -8.45004 -90.6172 -10.2583 9.73728 29.8656 -23.4847 -19.7618 0.986693 17.1042 2.51447 -13.8495 -175.346 -7.77341 -12.787 -3.03599 -15.6505 -1.96297 10.2833 80.2079 -9.36056 -0.965263 26.367 -3.60229 178.892 -3.76798 -0.173747 4.59357 -18.2401 16.495 -38.4591 74.2207 43.1979 0.963563 26.3682 3.55536 
-68.2438 98.6638 170.003 -1.1895 -5.32822 -1.25705 0.284518 -5.31244 -0.249415 0.57294 3.29604 -0.576123 0.641732 9.89018 -0.583422 -3.58644 6.28566 -2.65167 2.94279 -9.24843 -4.49779 -87.9956 -22.3132 89.5974 19.225 1.43364 -22.5938 19.2419 -19.062 -0.892933 -15.846 3.92418 6.47986 87.1028 -8.47055 -90.6187 -10.2958 9.72536 29.8826 -23.5229 -19.7401 0.987167 17.0756 2.49574 -13.8667 -175.322 -7.76814 -12.7797 -3.04421 -15.6581 -1.94938 10.1911 80.2076 -9.2723 -0.965263 26.367 -3.60229 178.921 -3.76626 -0.178603 4.58133 -18.2408 16.5108 -38.5535 74.2152 43.2603 0.963563 26.3682 3.55536 
-68.2759 98.6636 169.948 -1.18518 -5.35424 -1.22372 0.278736 -5.31245 -0.257939 0.561678 3.30275 -0.591615 0.63226 9.89688 -0.599125 -3.65282 6.25968 -2.69995 3.04753 -9.26862 -4.58613 -88.0167 -22.2941 89.5981 19.2531 1.46274 -22.6229 19.2993 -19.0837 -0.89305 -15.8313 3.92043 6.56923 87.1047 -8.5032 -90.6207 -10.352 9.71561 29.8918 -23.5615 -19.7136 0.987572 17.061 2.468 -13.8498 -175.29 -7.76916 -12.7979 -3.05206 -15.639 -1.91006 10.0135 80.1974 -9.09945 -0.965263 26.367 -3.60229 178.952 -3.76386 -0.195819 4.58102 -18.2247 16.546 -38.6748 74.1967 43.3436 0.963563 26.3682 3.55536 
-68.3087 98.6628 169.891 -1.18479 -5.38243 -1.20695 0.272398 -5.31245 -0.262963 0.549201 3.30743 -0.599975 0.620804 9.90154 -0.607626 -3.70546 6.23518 -2.77253 3.16171 -9.28201 -4.69498 -88.0378 -22.254 89.6005 19.2609 1.49613 -22.6081 19.3405 -19.0897 -0.893083 -15.8359 3.86946 6.5773 87.1123 -8.52329 -90.621 -10.3951 9.70164 29.8791 -23.6001 -19.6904 0.987987 17.0585 2.4463 -13.783 -175.258 -7.77974 -12.827 -3.0564 -15.61 -1.87445 9.85995 80.1943 -8.95151 -0.965263 26.367 -3.60229 178.983 -3.79038 -0.243009 4.59565 -18.1748 16.5896 -38.8239 74.1774 43.4494 0.963563 26.3682 3.55536 
-68.3399 98.6588 169.831 -1.19252 -5.41579 -1.22297 0.266294 -5.31246 -0.259871 0.536951 3.31344 -0.59216 0.607638 9.90757 -0.599729 -3.72838 6.19979 -2.85463 3.25544 -9.2778 -4.79873 -88.053 -22.1988 89.6044 19.2625 1.52736 -22.5781 19.3587 -19.0793 -0.893026 -15.8384 3.8066 6.56761 87.1228 -8.53642 -90.6204 -10.4222 9.68767 29.849 -23.64 -19.6761 0.988477 17.0818 2.39941 -13.7414 -175.232 -7.80482 -12.8759 -3.05148 -15.5726 -1.84726 9.7563 80.2063 -8.85679 -0.965263 26.367 -3.60229 179.012 -3.80992 -0.294085 4.61456 -18.1366 16.6171 -38.9672 74.1731 43.5447 0.963563 26.3682 3.55536 
-68.3726 98.6489 169.77 -1.21206 -5.45386 -1.26563 0.26167 -5.31246 -0.251992 0.527511 3.32025 -0.575191 0.596215 9.91438 -0.582546 -3.73099 6.15977 -2.92165 3.31887 -9.2581 -4.8751 -88.0663 -22.1642 89.6065 19.2934 1.54661 -22.5099 19.3419 -19.0795 -0.893027 -15.8684 3.83059 6.62256 87.1336 -8.52513 -90.6219 -10.424 9.67331 29.8056 -23.6866 -19.6793 0.989125 17.1546 2.32862 -13.6685 -175.203 -7.84135 -12.9427 -3.04844 -15.5348 -1.82653 9.70391 80.2467 -8.82071 -0.965263 26.367 -3.60229 179.048 -3.83244 -0.3149 4.6239 -18.103 16.6096 -39.0945 74.1962 43.6192 0.963563 26.3682 3.55536 
-68.4144 98.6365 169.709 -1.26312 -5.49822 -1.34354 0.259588 -5.31246 -0.240506 0.524031 3.33235 -0.552505 0.596004 9.92651 -0.559336 -3.71552 6.09897 -2.96748 3.35285 -9.21427 -4.91846 -88.1047 -22.1732 89.6044 19.354 1.52567 -22.4298 19.3018 -19.0646 -0.892947 -15.8625 3.83739 6.54649 87.1425 -8.49092 -90.6251 -10.4127 9.65733 29.7721 -23.7422 -19.6903 0.989901 17.1864 2.27049 -13.6574 -175.134 -7.89129 -12.9685 -3.05699 -15.4988 -1.85551 9.83648 80.303 -8.97993 -0.965263 26.367 -3.60229 179.125 -3.83974 -0.303395 4.60703 -18.0844 16.5607 -39.1511 74.2328 43.6204 0.963563 26.3682 3.55536 
-68.4562 98.6231 169.642 -1.31136 -5.50884 -1.4888 0.258168 -5.31245 -0.217467 0.521463 3.33002 -0.505411 0.595714 9.92424 -0.511827 -3.69763 6.04329 -3.00231 3.37776 -9.17091 -4.94882 -88.1296 -22.1635 89.6041 19.3598 1.5409 -22.4206 19.2874 -19.0457 -0.892846 -15.8041 3.82153 6.55566 87.1541 -8.46228 -90.628 -10.4219 9.64006 29.7582 -23.7879 -19.7021 0.990793 17.1883 2.34409 -13.7621 -175.086 -7.92073 -12.9898 -3.07463 -15.4453 -1.93321 10.151 80.3506 -9.32629 -0.965263 26.367 -3.60229 179.187 -3.8082 -0.255156 4.57144 -18.0902 16.4451 -39.1058 74.3045 43.5205 0.963563 26.3682 3.55536 
-68.4938 98.6133 169.572 -1.34825 -5.50468 -1.6406 0.257434 -5.31245 -0.193007 0.520442 3.32328 -0.4562 0.588178 9.91756 -0.461965 -3.68389 5.9851 -3.03612 3.39989 -9.13904 -4.979 -88.1488 -22.1559 89.604 19.3527 1.56567 -22.4612 19.2823 -19.0441 -0.892837 -15.7478 3.88576 6.51238 87.1672 -8.44115 -90.6307 -10.4454 9.6285 29.7593 -23.8236 -19.7126 0.991818 17.1683 2.42046 -13.8292 -175.062 -7.93388 -12.9899 -3.09283 -15.3816 -2.03155 10.5325 80.3762 -9.74207 -0.965263 26.367 -3.60229 179.229 -3.7487 -0.304371 4.57364 -18.1041 16.3897 -39.134 74.3478 43.4938 0.963563 26.3682 3.55536 
-68.526 98.6066 169.501 -1.36955 -5.51605 -1.77135 0.257257 -5.30968 -0.171696 0.520825 3.32898 -0.413436 0.576621 9.92327 -0.418603 -3.67509 5.91589 -3.0746 3.41706 -9.1177 -5.0144 -88.159 -22.1613 89.6022 19.3564 1.59304 -22.5238 19.3065 -19.0695 -0.892974 -15.7488 3.94721 6.48201 87.1801 -8.4177 -90.6335 -10.444 9.62015 29.7604 -23.873 -19.705 0.992902 17.1533 2.44272 -13.8029 -175.059 -7.94801 -12.9753 -3.09813 -15.3302 -2.12324 10.8737 80.381 -10.1168 -0.965263 26.367 -3.60229 179.244 -3.68425 -0.35851 4.59846 -18.1385 16.3528 -39.1787 74.3842 43.4822 0.963563 26.3682 3.55536 
-68.558 98.6014 169.428 -1.38719 -5.52853 -1.88336 0.257389 -5.30336 -0.154297 0.521874 3.34161 -0.378632 0.566949 9.93595 -0.383326 -3.69088 5.83242 -3.10732 3.43714 -9.10596 -5.05326 -88.1686 -22.1813 89.5992 19.3658 1.59359 -22.4812 19.315 -19.1102 -0.897871 -15.7828 3.99964 6.44689 87.1853 -8.38947 -90.6359 -10.4361 9.62362 29.8046 -23.9338 -19.6947 0.994298 17.1489 2.44446 -13.7585 -175.055 -7.94678 -12.9486 -3.10116 -15.3004 -2.20961 11.1874 80.3807 -10.4621 -0.965263 26.367 -3.60229 179.253 -3.65291 -0.425733 4.63825 -18.1379 16.3341 -39.2487 74.4125 43.4995 0.963563 26.3682 3.55536 
